<svg xmlns="http://www.w3.org/2000/svg" xmlns:xlink="http://www.w3.org/1999/xlink" viewBox="0 0 1365.06 772.43"><defs><style>.cls-1{fill:url(#linear-gradient);}.cls-2{fill:url(#linear-gradient-2);}.cls-3{fill:url(#linear-gradient-3);}.cls-4{fill:url(#linear-gradient-4);}.cls-5{fill:url(#linear-gradient-5);}.cls-6{fill:url(#linear-gradient-6);}.cls-7{fill:url(#linear-gradient-7);}.cls-8{fill:url(#linear-gradient-8);}.cls-9{fill:url(#linear-gradient-9);}.cls-10{fill:url(#linear-gradient-10);}</style><linearGradient id="linear-gradient" x1="87.82" y1="615.77" x2="1436.54" y2="622.69" gradientUnits="userSpaceOnUse"><stop offset="0" stop-color="#f2dfc3"/><stop offset="0.42" stop-color="#d3a24f"/><stop offset="1" stop-color="#c28710"/></linearGradient><linearGradient id="linear-gradient-2" x1="757.09" y1="395.32" x2="340.92" y2="508.52" xlink:href="#linear-gradient"/><linearGradient id="linear-gradient-3" x1="743.63" y1="345.84" x2="327.46" y2="459.05" xlink:href="#linear-gradient"/><linearGradient id="linear-gradient-4" x1="676.68" y1="99.75" x2="260.52" y2="212.96" xlink:href="#linear-gradient"/><linearGradient id="linear-gradient-5" x1="727.42" y1="286.25" x2="311.25" y2="399.46" xlink:href="#linear-gradient"/><linearGradient id="linear-gradient-6" x1="710.24" y1="223.11" x2="294.08" y2="336.32" xlink:href="#linear-gradient"/><linearGradient id="linear-gradient-7" x1="692.21" y1="156.84" x2="276.05" y2="270.04" xlink:href="#linear-gradient"/><linearGradient id="linear-gradient-8" x1="205.81" y1="352.63" x2="397.44" y2="344.97" gradientUnits="userSpaceOnUse"><stop offset="0.01" stop-color="#1d89c1"/><stop offset="0.4" stop-color="#1d7cb0"/><stop offset="1" stop-color="#1c628f"/></linearGradient><linearGradient id="linear-gradient-9" x1="640.48" y1="337.84" x2="644.91" y2="337.84" gradientUnits="userSpaceOnUse"><stop offset="0.01" stop-color="#ebc17d"/><stop offset="0.45" stop-color="#dfb77c"/><stop offset="1" stop-color="#c08329"/></linearGradient><linearGradient id="linear-gradient-10" x1="648.97" y1="69.33" x2="1212.53" y2="596.52" xlink:href="#linear-gradient"/></defs><title>Logo_SCI mới - update</title><g id="Layer_1" data-name="Layer 1"><path class="cls-1" d="M602.64,652.58a4,4,0,0,1-3.38-1.71,3.82,3.82,0,0,1,0-3.95,14.49,14.49,0,0,1,4.4-4.75,41,41,0,0,1,8.38-4.61,72.44,72.44,0,0,1,11.63-3.71l.33-.08.2-.26q.39-.51,2.58-3t5.22-6l-1.27-1.25a59.45,59.45,0,0,1-6.44,3.92,46,46,0,0,1-5.94,2.64,19.59,19.59,0,0,1-4.81,1.13c-.29,0-.58,0-.85,0a5,5,0,0,1-2.2-.42,2.61,2.61,0,0,1-1.28-1.53,5,5,0,0,1-.05-2.73,12,12,0,0,1,1.58-3.65,19.45,19.45,0,0,1,3.48-4.06l-1.15-1.35-3.8,2.44-2,1.25c-.33.21-.58.34-.83.48l-.4.25a95.59,95.59,0,0,1-14,7.43,36.8,36.8,0,0,1-9.68,2.74q-.93.09-1.76.09a7.85,7.85,0,0,1-3.88-.82,4.46,4.46,0,0,1-2.28-3.08,7.62,7.62,0,0,1-.1-2.21l.14-1.64-1.52.81c-1.23.66-2.5,1.32-3.89,2-2,1-4,1.85-6,2.67a38.42,38.42,0,0,1-5.84,1.87,18.88,18.88,0,0,1-4.18.52l-.83,0a4.7,4.7,0,0,1-3.19-1.28,5,5,0,0,1-1.52-3.11,11,11,0,0,1,.56-4.9l.82-2.58-2.27,1.63c-2.63,1.9-5.31,3.66-8,5.23a48.2,48.2,0,0,1-7.49,3.7,19.83,19.83,0,0,1-6.15,1.41h0a4.67,4.67,0,0,1-3.73-1.36,3.38,3.38,0,0,1-.95-2.42,9.37,9.37,0,0,1,.57-3.19,14,14,0,0,1,1.55-3.06,13.15,13.15,0,0,1,1.75-2.18L523,618.62l-2.75,1.74c-.87.56-1.7,1.05-2.47,1.49l-.33.15c-1.26.8-2.75,1.71-4.5,2.73s-3.79,2.13-5.82,3.15-4.14,2-6.26,2.77a28.59,28.59,0,0,1-6,1.64,15.26,15.26,0,0,1-2.26.18,10.58,10.58,0,0,1-2.6-.31,5,5,0,0,1-3.09-2.33,4.52,4.52,0,0,1-.67-3.2,10.2,10.2,0,0,1,1.38-3.65,21,21,0,0,1,2.78-3.61,38.56,38.56,0,0,1,3.44-3.21q1.76-1.44,3.3-2.49a23.67,23.67,0,0,1,2.33-1.46l.68-.35-.25-.69a1.35,1.35,0,0,0-1.42-.82,9.27,9.27,0,0,0-1.36.12l-1.65.22a9.11,9.11,0,0,1-1,.06l-.73,0-.59,0-.29.48a24.59,24.59,0,0,1-4.8,5.48,41.93,41.93,0,0,1-7.39,5.2,4.89,4.89,0,0,1-2.38.7,2.71,2.71,0,0,1-1.84-.55c-.11-.11-.37-.36-.11-1.13.15-.43.69-1.17,2.4-2.19a27.5,27.5,0,0,0,2.61-1.7q1.38-1,2.81-2.13c1-.75,1.88-1.52,2.78-2.32a26,26,0,0,0,2.43-2.45l1.23-1.42H489.1a7.48,7.48,0,0,1-1.35-2.5,4.44,4.44,0,0,1-.11-2.43,3,3,0,0,1,1.2-1.67,4.2,4.2,0,0,1,2.49-.66,2.22,2.22,0,0,1,1.48.39,5.2,5.2,0,0,1,1,1.2l.87,1.41a2.23,2.23,0,0,0,2,1.06,41.5,41.5,0,0,0,4.65-.3q2.6-.3,5.69-.82a7.36,7.36,0,0,1,1.21-.11,3.65,3.65,0,0,1,1.73.38,2.71,2.71,0,0,1,1.38,1.5,2.91,2.91,0,0,1-.14,2.11,4.39,4.39,0,0,1-2,2q-1.44.83-3.23,2t-3.6,2.53q-1.83,1.35-3.5,2.77a31.69,31.69,0,0,0-2.9,2.78,9.83,9.83,0,0,0-1.8,2.59,2.2,2.2,0,0,0,.24,2.57,3.65,3.65,0,0,0,2.84,1.08,7.59,7.59,0,0,0,1.14-.09,23.35,23.35,0,0,0,5.28-1.58c1.91-.79,4-1.76,6.11-2.88s4.19-2.27,6-3.39l2.42-1.39q1.64-1,3.78-2.13t4.59-2.55q2.44-1.38,4.72-2.74t4.17-2.56a32.8,32.8,0,0,0,3.06-2.13,8.19,8.19,0,0,1,3.52-1.62,12.35,12.35,0,0,1,2.53-.29,7.94,7.94,0,0,1,1.16.08,3,3,0,0,1,2,.89c.28.34-.14,1-.53,1.43a24.55,24.55,0,0,1-2.65,2.56q-1.87,1.62-4.14,3.49t-4.59,3.85q-2.33,2-4.15,3.73a28.38,28.38,0,0,0-2.87,3.13c-1.16,1.54-.84,2.46-.37,3a1.64,1.64,0,0,0,1.34.55,5.47,5.47,0,0,0,2.09-.55,40.33,40.33,0,0,0,4.73-2.53q2.76-1.67,6.11-4l6.74-4.65L556,609.6q3.19-2.24,5.75-3.85a10.36,10.36,0,0,1,4.58-2.12,12.54,12.54,0,0,1,2-.17,6.54,6.54,0,0,1,1.8.22c1,.29,1.25.74,1.32,1s-.42,1.05-1.4,1.73a70.1,70.1,0,0,0-6.91,5.54,50,50,0,0,0-5.1,5.34,17.1,17.1,0,0,0-2.8,4.56c-.6,1.61-.47,2.8.41,3.55a3.17,3.17,0,0,0,2.12.65,9.1,9.1,0,0,0,2-.26,38.39,38.39,0,0,0,5.54-1.78c2-.79,4.06-1.71,6.14-2.72s3.82-1.89,5.23-2.63l.26-.12.18-.25.23-.41c.35-.62.71-1.23,1.14-1.86a160.84,160.84,0,0,1,13.82-17.39,79.8,79.8,0,0,1,11.22-10.22c3.18-2.27,5.88-3.62,8-4a8.93,8.93,0,0,1,1.6-.16,3.58,3.58,0,0,1,2.64.9c.39.41.87,1.17.27,2.67a16.47,16.47,0,0,1-3.05,4.58,68,68,0,0,1-5.72,5.64c-2.29,2-4.71,4.09-7.21,6.1s-5.06,4.06-7.59,6-4.83,3.84-6.87,5.51a25.87,25.87,0,0,0-3.3,5.31c-.78,1.8-.71,3.15.21,4a4.15,4.15,0,0,0,3,1,8.65,8.65,0,0,0,1.6-.16,30.58,30.58,0,0,0,5.74-1.75,61,61,0,0,0,6.05-2.85l4.88-2.62,2.47-1.42q1.63-1,3.77-2.13t4.59-2.55q2.44-1.38,4.72-2.74t4.17-2.56a32.62,32.62,0,0,0,3.06-2.13,8.19,8.19,0,0,1,3.52-1.62,12.36,12.36,0,0,1,2.53-.29,7.93,7.93,0,0,1,1.16.08,3,3,0,0,1,2,.89c.28.34-.14,1-.53,1.43a21.38,21.38,0,0,1-2.67,2.51q-1.92,1.59-4.14,3.39t-4.54,3.65a51.23,51.23,0,0,0-4,3.5,12.87,12.87,0,0,0-2.35,2.91,1.85,1.85,0,0,0-.16,1.7,1.79,1.79,0,0,0,1.25.93,3.38,3.38,0,0,0,.88.11,7.45,7.45,0,0,0,2.85-.71,31.21,31.21,0,0,0,4.65-2.55q2.52-1.64,5.44-3.76l5.88-4.28q3-2.17,5.85-4.16a61.08,61.08,0,0,1,5.24-3.27,8.81,8.81,0,0,1,3.29-1.07,11.86,11.86,0,0,1,1.34-.08,7.2,7.2,0,0,1,1.65.17,2.5,2.5,0,0,1,1.43.73h0s0,.19-.48.54a52.56,52.56,0,0,0-4.19,3.9q-2.48,2.52-5.3,5.59t-5.73,6.32q-2.9,3.26-5.33,6.07l1.12,1.34,8.62-3.91c1.18-.48,2.49-1.05,3.91-1.7s2.77-1.29,4-1.94l3.4-1.73c1-.53,1.78-.92,2.21-1.18a6.18,6.18,0,0,1,2.76-.75,2.11,2.11,0,0,1,1.55.45c.09.09.33.35,0,1.12-.17.45-.73,1.24-2.41,2.39q-.84.58-2.33,1.44t-3.47,1.95q-1.93,1.05-4.18,2.11t-4.57,2L628,637.16l-.14.16a60.12,60.12,0,0,1-9.79,9,41.78,41.78,0,0,1-8.84,5,17.1,17.1,0,0,1-6,1.33Zm106.29-5.87a26.47,26.47,0,0,1-5.83-.6,15.84,15.84,0,0,1-8.14-4.24,10.37,10.37,0,0,1-3-6.9,14.16,14.16,0,0,1,2.8-8.33c2-3,5.23-5.75,9.68-8.32a9.76,9.76,0,0,1,3.39-1.29,10.87,10.87,0,0,1,1.73-.15,8.36,8.36,0,0,1,1.36.11,6.51,6.51,0,0,1,2.32.8,2.48,2.48,0,0,1,1.09,1.12,1.13,1.13,0,0,1-.11,1.05,3.63,3.63,0,0,1-1.8,1.24,29.93,29.93,0,0,0-9.41,5.73c-2.18,2.14-3.48,4.21-3.85,6.18a6.11,6.11,0,0,0,1.58,5.48,10.21,10.21,0,0,0,6.32,2.92,18.18,18.18,0,0,0,2.57.17,33,33,0,0,0,7.35-1A51.65,51.65,0,0,0,730,635.3a50.41,50.41,0,0,0,8.66-6,26,26,0,0,0,5.19-6,9.81,9.81,0,0,0,1.6-5.38,5,5,0,0,0-2.4-4.07,11,11,0,0,0-6-1.37,32.69,32.69,0,0,0-9.17,1.67,23.43,23.43,0,0,1-6.59,1.19,10.42,10.42,0,0,1-1.3-.08,5.6,5.6,0,0,1-4-1.86,5.16,5.16,0,0,1-.78-4.06,14.68,14.68,0,0,1,2.49-5.82,32.73,32.73,0,0,1,5.95-6.46,48.48,48.48,0,0,1,9.3-6.12A45.25,45.25,0,0,1,745,586.54a28.1,28.1,0,0,1,5-.5,15.16,15.16,0,0,1,3.38.35,8.63,8.63,0,0,1,4.82,2.65,6.49,6.49,0,0,1,1.64,4.2,8.11,8.11,0,0,1-1.58,4.68,12.78,12.78,0,0,1-4.94,4.06,11.29,11.29,0,0,1-4.71,1.31h-.35a5.47,5.47,0,0,1-3-.87c-.67-.53-.69-1-.62-1.31s.64-.84,1.63-1.13a9.28,9.28,0,0,0,3.49-1.82,4.66,4.66,0,0,0,1.65-2.55,2.89,2.89,0,0,0-.76-2.57,4.56,4.56,0,0,0-3.22-1.22h-.51a18.26,18.26,0,0,0-4.62.75,37,37,0,0,0-7.32,3.1,41.65,41.65,0,0,0-7.6,5,18.86,18.86,0,0,0-4.31,4.71,3,3,0,0,0-.45,2.47,2.18,2.18,0,0,0,1.21,1.26,3.49,3.49,0,0,0,1.5.28,17.27,17.27,0,0,0,5.26-1.21,27.08,27.08,0,0,1,8.67-1.62c.6,0,1.19,0,1.76.08a14.17,14.17,0,0,1,7.34,2.61,9.78,9.78,0,0,1,3.6,5.61,12.73,12.73,0,0,1-.79,7.66A27.51,27.51,0,0,1,745,631.3a49.27,49.27,0,0,1-12.45,8.76,56.88,56.88,0,0,1-16.67,6A43.21,43.21,0,0,1,708.93,646.71Zm-273.66-.07a6.49,6.49,0,0,1-3.32-1.3,3.58,3.58,0,0,1-1.4-3.11,16.07,16.07,0,0,1,2.17-7.36,59.42,59.42,0,0,1,5.71-8.66,110.58,110.58,0,0,1,7.85-8.93c2.94-3,5.83-5.85,8.58-8.42s5.41-5,7.84-7,4.31-3.66,5.67-4.79a7.86,7.86,0,0,1,3.66-1.79,10.37,10.37,0,0,1,1.74-.16,5.67,5.67,0,0,1,1.48.18,2,2,0,0,1,1.37.89c.11.23-.09.55-.61,1-1.69,1.29-3.8,3.11-6.44,5.55s-5.34,5.07-8.21,8-5.78,6.06-8.65,9.3-5.45,6.41-7.65,9.4a55.26,55.26,0,0,0-5.17,8.29c-1.31,2.68-1.71,4.78-1.23,6.43.34,1.22-.1,1.69-.53,2a4.16,4.16,0,0,1-2.31.62ZM811,632.47a10.59,10.59,0,0,1-2.6-.31,5,5,0,0,1-3.09-2.33,4.52,4.52,0,0,1-.67-3.2A10.17,10.17,0,0,1,806,623a20.89,20.89,0,0,1,2.78-3.61,38.91,38.91,0,0,1,3.44-3.21q1.77-1.44,3.3-2.49a23.37,23.37,0,0,1,2.33-1.46l.68-.35-.25-.69a1.35,1.35,0,0,0-1.42-.82,9.29,9.29,0,0,0-1.36.12l-1.65.22a9.11,9.11,0,0,1-1,.06l-.73,0-.59,0-.29.48a24.63,24.63,0,0,1-4.8,5.48,40.83,40.83,0,0,1-5.87,4.24,9.67,9.67,0,0,1-1.44,1,102.1,102.1,0,0,1-15.78,7.06,53.73,53.73,0,0,1-11.84,2.72q-1.27.11-2.42.11a14.46,14.46,0,0,1-5.32-.86,7,7,0,0,1-3.88-3.2,7.41,7.41,0,0,1-.43-5.05,18.18,18.18,0,0,1,3.15-6.55,33.09,33.09,0,0,1,7.88-8.13,25.31,25.31,0,0,1,7.77-3.81,15.25,15.25,0,0,1,3.83-.54,10,10,0,0,1,2.42.28,5.76,5.76,0,0,1,3.64,2.27,5.12,5.12,0,0,1,.88,3,7.84,7.84,0,0,1-1,3.7,13.53,13.53,0,0,1-3.31,3.84,20.15,20.15,0,0,1-5.87,3.24,10.53,10.53,0,0,1-3.48.79h0a7.89,7.89,0,0,1-2.6-.35,4.54,4.54,0,0,1-1.76-1,4.71,4.71,0,0,1-1-1.43l-.61-1.38-1,1.18a16.37,16.37,0,0,0-2.52,4,3.36,3.36,0,0,0,.25,3.67c.89,1.17,2.54,1.78,4.89,1.78h.49a37.07,37.07,0,0,0,8-1.28,76.12,76.12,0,0,0,9.16-3.07,66,66,0,0,0,8.46-4.08,27.22,27.22,0,0,0,2.62-1.71q1.39-1,2.81-2.13c1-.75,1.88-1.52,2.78-2.32a26,26,0,0,0,2.43-2.45l1.23-1.42h-1.51a7.41,7.41,0,0,1-1.35-2.5,4.43,4.43,0,0,1-.11-2.43,3,3,0,0,1,1.19-1.67,4.2,4.2,0,0,1,2.49-.66,2.23,2.23,0,0,1,1.48.39,5.23,5.23,0,0,1,1,1.2l.87,1.41a2.23,2.23,0,0,0,2,1.06,41.5,41.5,0,0,0,4.65-.3q2.6-.3,5.69-.82a7.34,7.34,0,0,1,1.21-.11,3.66,3.66,0,0,1,1.74.38,2.71,2.71,0,0,1,1.38,1.5,2.91,2.91,0,0,1-.14,2.11,4.39,4.39,0,0,1-2,2q-1.43.83-3.23,2t-3.6,2.53q-1.83,1.35-3.5,2.77a31.84,31.84,0,0,0-2.9,2.78,9.79,9.79,0,0,0-1.8,2.59,2.19,2.19,0,0,0,.24,2.57,3.65,3.65,0,0,0,2.84,1.08,7.59,7.59,0,0,0,1.14-.09,23.35,23.35,0,0,0,5.28-1.58c1.91-.79,4-1.76,6.11-2.88s4.14-2.24,6-3.39l2.42-1.4q1.64-1,3.78-2.13t4.59-2.55q2.44-1.38,4.72-2.74l4.2-2.55a31.44,31.44,0,0,0,3.11-2.13,7.87,7.87,0,0,1,3.5-1.58,13.18,13.18,0,0,1,2.5-.26,8.63,8.63,0,0,1,1.24.08,3,3,0,0,1,1.95.85c.27.34-.31,1.09-.57,1.4-1.56,1.71-3.17,3.57-4.82,5.55a71.37,71.37,0,0,0-4.36,5.75,25.32,25.32,0,0,0-2.76,5.13c-.67,1.8-.53,3.19.39,4.13a2.22,2.22,0,0,0,1.69.62,6.49,6.49,0,0,0,1.91-.35,29.17,29.17,0,0,0,4.86-2.13c1.83-1,3.8-2.17,5.88-3.56s4.07-2.86,6-4.41l.43-.35-.13-.52a11.18,11.18,0,0,1-.26-4.78,9.82,9.82,0,0,1,1.51-3.84,8,8,0,0,1,2.78-2.52,7.46,7.46,0,0,1,3.69-.92,5.84,5.84,0,0,1,3.33.83,3.63,3.63,0,0,1,1.53,2.06,5.52,5.52,0,0,1-.08,3,8.07,8.07,0,0,1-1.74,3.14c-.56.62-1.13,1.25-1.7,1.86s-1.15,1.19-1.76,1.77l-.75.71.85.6a13.39,13.39,0,0,0,2.28,1.27,11.48,11.48,0,0,0,2.69.81,11.29,11.29,0,0,0,1.91.16c.32,0,.64,0,1,0a7,7,0,0,0,2.9-.9c.62-.34,1.38-.78,2.25-1.3l5.95-3.5L904,612c1.17-1.17,2.23-2.21,3.36-3.25a44.2,44.2,0,0,1,3.76-3.07,11,11,0,0,1,4.54-2,11.41,11.41,0,0,1,2-.19,6.13,6.13,0,0,1,1.77.23c1.05.33,1.27.78,1.34,1.09s-.42,1.05-1.4,1.73a70,70,0,0,0-6.91,5.54,53.15,53.15,0,0,0-5.14,5.33,17.28,17.28,0,0,0-2.84,4.52c-.76,2-.14,3,.51,3.55a3.15,3.15,0,0,0,2.09.62,9.1,9.1,0,0,0,2-.26,37.6,37.6,0,0,0,5.59-1.82q3-1.23,6.16-2.72t5.24-2.6l.26-.13.17-.27a26.68,26.68,0,0,1,4.35-6.13,30.87,30.87,0,0,1,7.19-5.59,24.24,24.24,0,0,1,8.85-3,13.35,13.35,0,0,1,1.81-.13,9,9,0,0,1,2.6.35,5.49,5.49,0,0,1,2.72,1.66,3.91,3.91,0,0,1,.82,2.75,7.51,7.51,0,0,1-1.5,3.84,6.81,6.81,0,0,1-2.17,2.05,7.31,7.31,0,0,1-2.42.88,6.63,6.63,0,0,1-1.06.09,4.73,4.73,0,0,1-1.07-.12,2.75,2.75,0,0,1-1.29-.58c-.23-.22-.2-.33-.18-.41s.08-.27.92-.66a7.12,7.12,0,0,0,1.71-1.14,7.31,7.31,0,0,0,1.25-1.39,2.26,2.26,0,0,0,.44-1.64c-.05-.28-.32-1.17-1.78-1.17a10.83,10.83,0,0,0-4.91,1.36,25.27,25.27,0,0,0-4.84,3.3,33.7,33.7,0,0,0-4.14,4.25,17.68,17.68,0,0,0-2.71,4.36,4.85,4.85,0,0,0-.23,3.82c.52,1.19,1.81,1.79,3.83,1.79a22.08,22.08,0,0,0,5.58-.88c2.13-.58,4.32-1.3,6.51-2.14s4.35-1.72,6.43-2.64,3.81-1.76,5.2-2.51l.23-.12.13-.22a24.91,24.91,0,0,1,1.44-2.28,33.09,33.09,0,0,1,7.88-8.13,25.31,25.31,0,0,1,7.77-3.81,15.25,15.25,0,0,1,3.83-.54,10,10,0,0,1,2.42.28,5.76,5.76,0,0,1,3.64,2.27,5.12,5.12,0,0,1,.88,3,7.84,7.84,0,0,1-1,3.7,13.53,13.53,0,0,1-3.31,3.84,20.15,20.15,0,0,1-5.87,3.24,10.53,10.53,0,0,1-3.48.79h0a7.89,7.89,0,0,1-2.6-.35,4.54,4.54,0,0,1-1.76-1,4.71,4.71,0,0,1-1-1.43l-.61-1.38-1,1.18a16.41,16.41,0,0,0-2.52,4,3.36,3.36,0,0,0,.25,3.67c.89,1.17,2.54,1.78,4.89,1.78h.49a37.07,37.07,0,0,0,8-1.28,76.12,76.12,0,0,0,9.16-3.07,66.14,66.14,0,0,0,8.46-4.08,5.26,5.26,0,0,1,2.59-.85c1,.09,1.55.3,1.81.64.08.11.34.46,0,1.32a5.08,5.08,0,0,1-2.34,2A102.1,102.1,0,0,1,981,628.89a53.73,53.73,0,0,1-11.84,2.72q-1.27.11-2.42.11a14.46,14.46,0,0,1-5.32-.86,7,7,0,0,1-3.88-3.2,6.2,6.2,0,0,1-.65-2.34l-.11-1.37-1.27.68c-2,1.08-4.25,2.14-6.62,3.13a66.91,66.91,0,0,1-8,2.77,29.74,29.74,0,0,1-7.92,1.15c-3,0-5.13-.6-6.4-1.78a6.07,6.07,0,0,1-2-4.51l0-1.48-1.36.75c-1.45.81-3,1.61-4.65,2.43-2,1-4,1.86-6,2.67a36.75,36.75,0,0,1-5.88,1.84,20.82,20.82,0,0,1-4.36.51l-.67,0a4.58,4.58,0,0,1-3.17-1.24,4.9,4.9,0,0,1-1.55-3.39,13.12,13.12,0,0,1,.9-5.48l.77-2.17-3.75,2a12.9,12.9,0,0,1-4.64,1.63,18.26,18.26,0,0,1-2.37.16,16.34,16.34,0,0,1-6.4-1.3,13.13,13.13,0,0,1-3.14-1.86l-.6-.5-.61.48a70.12,70.12,0,0,1-9.12,6.16,54.66,54.66,0,0,1-8.89,4.1,23.56,23.56,0,0,1-7.29,1.46h0c-2,0-3.38-.45-4.28-1.38a5.66,5.66,0,0,1-1.34-2.85,11.66,11.66,0,0,1,0-4.1,18.15,18.15,0,0,1,1.42-4.55,16.33,16.33,0,0,1,2.75-4.17L849,613.82l-1.5,1q-1,.66-2.33,1.46c-.89.54-5.45,3.41-5.45,3.41-.85.53-1.6,1-2.25,1.39l-1.38.82-.29.14c-1.26.8-2.75,1.71-4.5,2.73s-3.79,2.13-5.82,3.15-4.14,2-6.26,2.77a28.59,28.59,0,0,1-6,1.64A15.26,15.26,0,0,1,811,632.47ZM978.74,608.4a8.38,8.38,0,0,0-2.7.83,20.27,20.27,0,0,0-3,1.78,34.09,34.09,0,0,0-3.1,2.47l-.55.49.39.6a4.33,4.33,0,0,0,3.8,2,9.44,9.44,0,0,0,4.27-1,8.59,8.59,0,0,0,3.19-2.6,2.88,2.88,0,0,0,.07-3.65,2.36,2.36,0,0,0-2-.87h-.05Zm-197.65,0a8.38,8.38,0,0,0-2.7.83,20.21,20.21,0,0,0-3,1.78,34.09,34.09,0,0,0-3.1,2.47l-.55.49.39.6a4.33,4.33,0,0,0,3.8,2,9.44,9.44,0,0,0,4.27-1,8.6,8.6,0,0,0,3.19-2.6,2.88,2.88,0,0,0,.07-3.65,2.36,2.36,0,0,0-2-.87h-.05Zm-359.84,6.9A2.84,2.84,0,0,1,420,615a3.12,3.12,0,0,1-1.57-1.9,5,5,0,0,1,.52-3.7,26.67,26.67,0,0,1,7.05-9.07,48,48,0,0,1,11.18-7,74.67,74.67,0,0,1,14.19-4.74,110.4,110.4,0,0,1,16-2.45c3.18-.25,6.43-.38,9.65-.38q3.5,0,7,.2a104.72,104.72,0,0,1,16.14,2.16,5,5,0,0,1,2.68,1.31,2.78,2.78,0,0,1,.87,1.67,1.07,1.07,0,0,1-.58,1,1.79,1.79,0,0,1-1,.22,6.06,6.06,0,0,1-1.41-.2,75.59,75.59,0,0,0-12.72-2c-2.54-.2-5.18-.3-7.82-.3-2.28,0-4.64.08-7,.22a110.12,110.12,0,0,0-15.37,2.09,80.51,80.51,0,0,0-14.39,4.37,48.41,48.41,0,0,0-11.78,6.85,24.77,24.77,0,0,0-7.5,9.72,3.25,3.25,0,0,1-1.91,2A3.44,3.44,0,0,1,421.25,615.3Zm505.3-16.95a5.65,5.65,0,0,1-1.95-.35,3.68,3.68,0,0,1-2.4-2.2,3.5,3.5,0,0,1,.4-3.16,5.48,5.48,0,0,1,3.18-2.37,6.54,6.54,0,0,1,2.08-.36,5.69,5.69,0,0,1,1.95.35,3.69,3.69,0,0,1,2.4,2.2,3.51,3.51,0,0,1-.4,3.16,5.46,5.46,0,0,1-3.18,2.37A6.56,6.56,0,0,1,926.55,598.35Z"/><path class="cls-2" d="M520.61,468H418.27l13.24,32A177.71,177.71,0,0,0,520.61,468Z"/><path class="cls-3" d="M555.77,435.55a179,179,0,0,0,21.3-32.48H391.36l13.46,32.48Z"/><path class="cls-4" d="M417.94,143.19a177.78,177.78,0,0,0-102.66,32.48H520.61A177.79,177.79,0,0,0,417.94,143.19Z"/><path class="cls-5" d="M377.91,370.58H589.82a177.88,177.88,0,0,0,6-32.48H364.45Z"/><path class="cls-6" d="M589.82,273.12H337.54L351,305.61H595.84A177.89,177.89,0,0,0,589.82,273.12Z"/><path class="cls-7" d="M555.77,208.16H310.63l13.46,32.48h253A178.88,178.88,0,0,0,555.77,208.16Z"/><path class="cls-8" d="M321.37,234.09l-10.74-25.93a223.37,223.37,0,0,0-17-15.33,180.1,180.1,0,0,0-13.41,14.32c14.86,8,29.52,19.19,43.82,33.49Zm23.75,57.35-7.58-18.31c-23.42-23.42-47.81-38.38-72.46-45a178.05,178.05,0,0,0-14.29,28.59c34,.42,68,16.69,100.21,48.88Zm59.69,144.11L401,426.36l-9.65-23.3c-47.24-47.24-98.4-60.24-147.8-39a177.25,177.25,0,0,0,11.66,33.29C305.18,375,357,387.73,404.82,435.55Zm-26.91-65-5.08-12.26-8.38-20.23c-39.48-39.48-81.7-55-123.34-46.7a179.61,179.61,0,0,0-2.6,30.45c0,2.13.09,4.24.16,6.36C285.4,312,333.39,326.06,377.91,370.58ZM418.27,468c-46.33-46.33-96.42-59.71-144.93-40.22a179.68,179.68,0,0,0,25.41,27.76c44.64-12.83,90.23,1.93,132.67,44.32h.06Z"/><rect class="cls-9" x="640.48" y="159.17" width="4.43" height="357.35"/><path class="cls-10" d="M701.86,367.33,718,346.57c14.5,16.15,38.23,31.31,69.21,31.31,39.21,0,51.74-21.09,51.74-37.9,0-56.68-130.17-25.38-130.17-103.81,0-36.25,32.3-61,75.47-61,33.61,0,59.65,11.2,78.1,30.65L845.87,226c-16.47-18.12-39.54-26.36-63.6-26.36-26.36,0-45.15,14.17-45.15,34.93,0,49.43,130.17,21.09,130.17,103.15,0,32-21.75,64.59-81.07,64.59C748,402.26,720,387.76,701.86,367.33Zm427.34,30.06V179.75h27.35V397.39ZM896.77,288.57c0-67.55,49.76-113.69,113-113.69,38.88,0,65.91,18.78,83.37,43.5l-23.07,12.85c-12.52-18.45-35.26-32-60.31-32-48.12,0-84.69,36.91-84.69,89.31,0,52.07,36.58,89.31,84.69,89.31a73.32,73.32,0,0,0,60.31-32l23.4,12.85c-18.46,25-44.82,43.5-83.7,43.5C946.53,402.26,896.77,356.13,896.77,288.57ZM734.43,500.81c-19.65,0-32.57-14-32.57-32.39,0-17.68,13.46-32.57,32.39-32.57,10.95,0,17.68,3.05,24.14,8.53l-7,8.34c-4.84-4.13-9.6-6.73-17.59-6.73-11.58,0-20.37,10.05-20.37,22.26,0,13,8.53,22.52,21.36,22.52A25.64,25.64,0,0,0,750,486V474.25H733.9v-9.6h26.74V491A40,40,0,0,1,734.43,500.81Zm115.28-1.08-15.43-21.89H820.46v21.89h-11V436.92h28c14.45,0,23.33,7.63,23.33,19.92,0,10.41-6.19,16.69-15,19.12l17,23.78ZM836.53,447H820.46v21.09h16.15c7.9,0,12.92-4.13,12.92-10.59C849.54,450.56,844.69,447,836.53,447Zm97.42,53.84c-19.29,0-32.75-14.63-32.75-32.39s13.64-32.57,32.93-32.57,32.75,14.63,32.75,32.39S953.24,500.81,933.94,500.81Zm0-54.83c-12.47,0-21.18,10-21.18,22.26s8.88,22.43,21.36,22.43,21.18-10,21.18-22.25S946.42,446,933.94,446Zm131.8,26.56c0,18.75-10.59,28.18-27,28.18S1012,491.3,1012,473.09V436.92h11v35.71c0,11.66,6,17.95,15.88,17.95s15.79-5.92,15.79-17.5V436.92h11Zm65.69,7H1119v20.19h-11V436.92h24.77c14.63,0,23.87,8.25,23.87,21.09C1156.55,472.19,1145.24,479.55,1131.43,479.55Zm.36-32.57H1119v22.62h12.83c8.34,0,13.55-4.58,13.55-11.31C1145.33,450.83,1140,447,1131.79,447Z"/></g></svg>